<svg xmlns="http://www.w3.org/2000/svg" xmlns:xlink="http://www.w3.org/1999/xlink" width="66" zoomAndPan="magnify" viewBox="0 0 49.5 55.499996" height="74" preserveAspectRatio="xMidYMid meet" version="1.0"><defs><clipPath id="ccde89fe38"><path d="M 0 0.03125 L 48.316406 0.03125 L 48.316406 54.949219 L 0 54.949219 Z M 0 0.03125 " clip-rule="nonzero"/></clipPath><clipPath id="cdefd00292"><path d="M 14.851562 0.03125 L 33.464844 0.03125 C 37.402344 0.03125 41.179688 1.59375 43.964844 4.378906 C 46.75 7.164062 48.316406 10.941406 48.316406 14.878906 L 48.316406 39.984375 C 48.316406 43.921875 46.75 47.699219 43.964844 50.484375 C 41.179688 53.269531 37.402344 54.835938 33.464844 54.835938 L 14.851562 54.835938 C 10.910156 54.835938 7.132812 53.269531 4.347656 50.484375 C 1.566406 47.699219 0 43.921875 0 39.984375 L 0 14.878906 C 0 10.941406 1.566406 7.164062 4.347656 4.378906 C 7.132812 1.59375 10.910156 0.03125 14.851562 0.03125 Z M 14.851562 0.03125 " clip-rule="nonzero"/></clipPath><clipPath id="f7ecb2791d"><path d="M 0 0.03125 L 48.316406 0.03125 L 48.316406 54.914062 L 0 54.914062 Z M 0 0.03125 " clip-rule="nonzero"/></clipPath><clipPath id="5f318b5c86"><path d="M 14.851562 0.03125 L 33.464844 0.03125 C 37.402344 0.03125 41.179688 1.59375 43.964844 4.378906 C 46.75 7.164062 48.316406 10.941406 48.316406 14.878906 L 48.316406 39.984375 C 48.316406 43.921875 46.75 47.699219 43.964844 50.484375 C 41.179688 53.269531 37.402344 54.835938 33.464844 54.835938 L 14.851562 54.835938 C 10.910156 54.835938 7.132812 53.269531 4.347656 50.484375 C 1.566406 47.699219 0 43.921875 0 39.984375 L 0 14.878906 C 0 10.941406 1.566406 7.164062 4.347656 4.378906 C 7.132812 1.59375 10.910156 0.03125 14.851562 0.03125 Z M 14.851562 0.03125 " clip-rule="nonzero"/></clipPath><clipPath id="41a31d1b1e"><rect x="0" width="49" y="0" height="55"/></clipPath><clipPath id="0ba7e9bf65"><path d="M 1.832031 0.03125 L 46.722656 0.03125 L 46.722656 33.730469 L 1.832031 33.730469 Z M 1.832031 0.03125 " clip-rule="nonzero"/></clipPath><clipPath id="515329af24"><path d="M 16.683594 0.03125 L 31.871094 0.03125 C 35.808594 0.03125 39.585938 1.59375 42.371094 4.378906 C 45.15625 7.164062 46.71875 10.941406 46.71875 14.878906 L 46.71875 18.882812 C 46.71875 22.820312 45.15625 26.597656 42.371094 29.382812 C 39.585938 32.167969 35.808594 33.730469 31.871094 33.730469 L 16.683594 33.730469 C 12.742188 33.730469 8.96875 32.167969 6.183594 29.382812 C 3.398438 26.597656 1.832031 22.820312 1.832031 18.882812 L 1.832031 14.878906 C 1.832031 10.941406 3.398438 7.164062 6.183594 4.378906 C 8.96875 1.59375 12.742188 0.03125 16.683594 0.03125 Z M 16.683594 0.03125 " clip-rule="nonzero"/></clipPath><clipPath id="1d3cd7403d"><path d="M 0.832031 0.03125 L 45.722656 0.03125 L 45.722656 33.730469 L 0.832031 33.730469 Z M 0.832031 0.03125 " clip-rule="nonzero"/></clipPath><clipPath id="ba9eeb531b"><path d="M 15.683594 0.03125 L 30.871094 0.03125 C 34.808594 0.03125 38.585938 1.59375 41.371094 4.378906 C 44.15625 7.164062 45.71875 10.941406 45.71875 14.878906 L 45.71875 18.882812 C 45.71875 22.820312 44.15625 26.597656 41.371094 29.382812 C 38.585938 32.167969 34.808594 33.730469 30.871094 33.730469 L 15.683594 33.730469 C 11.742188 33.730469 7.96875 32.167969 5.183594 29.382812 C 2.398438 26.597656 0.832031 22.820312 0.832031 18.882812 L 0.832031 14.878906 C 0.832031 10.941406 2.398438 7.164062 5.183594 4.378906 C 7.96875 1.59375 11.742188 0.03125 15.683594 0.03125 Z M 15.683594 0.03125 " clip-rule="nonzero"/></clipPath><clipPath id="8023dc1604"><rect x="0" width="46" y="0" height="34"/></clipPath><clipPath id="34b24e712b"><path d="M 1.832031 23.433594 L 46.726562 23.433594 L 46.726562 54.835938 L 1.832031 54.835938 Z M 1.832031 23.433594 " clip-rule="nonzero"/></clipPath><clipPath id="9af3c907d9"><path d="M 16.683594 23.433594 L 31.871094 23.433594 C 35.808594 23.433594 39.585938 24.996094 42.371094 27.78125 C 45.15625 30.566406 46.71875 34.34375 46.71875 38.285156 L 46.71875 39.984375 C 46.71875 43.921875 45.15625 47.699219 42.371094 50.484375 C 39.585938 53.269531 35.808594 54.835938 31.871094 54.835938 L 16.683594 54.835938 C 12.742188 54.835938 8.96875 53.269531 6.183594 50.484375 C 3.398438 47.699219 1.832031 43.921875 1.832031 39.984375 L 1.832031 38.285156 C 1.832031 34.34375 3.398438 30.566406 6.183594 27.78125 C 8.96875 24.996094 12.742188 23.433594 16.683594 23.433594 Z M 16.683594 23.433594 " clip-rule="nonzero"/></clipPath><clipPath id="d74bd6d4f0"><path d="M 0.832031 0.433594 L 45.726562 0.433594 L 45.726562 31.835938 L 0.832031 31.835938 Z M 0.832031 0.433594 " clip-rule="nonzero"/></clipPath><clipPath id="101d7f0c7b"><path d="M 15.683594 0.433594 L 30.871094 0.433594 C 34.808594 0.433594 38.585938 1.996094 41.371094 4.78125 C 44.15625 7.566406 45.71875 11.34375 45.71875 15.285156 L 45.71875 16.984375 C 45.71875 20.921875 44.15625 24.699219 41.371094 27.484375 C 38.585938 30.269531 34.808594 31.835938 30.871094 31.835938 L 15.683594 31.835938 C 11.742188 31.835938 7.96875 30.269531 5.183594 27.484375 C 2.398438 24.699219 0.832031 20.921875 0.832031 16.984375 L 0.832031 15.285156 C 0.832031 11.34375 2.398438 7.566406 5.183594 4.78125 C 7.96875 1.996094 11.742188 0.433594 15.683594 0.433594 Z M 15.683594 0.433594 " clip-rule="nonzero"/></clipPath><clipPath id="1c9bf52067"><rect x="0" width="46" y="0" height="32"/></clipPath></defs><g clip-path="url(#ccde89fe38)"><g clip-path="url(#cdefd00292)"><g transform="matrix(1, 0, 0, 1, 0, 0.000000000000002127)"><g clip-path="url(#41a31d1b1e)"><g clip-path="url(#f7ecb2791d)"><g clip-path="url(#5f318b5c86)"><path fill="#4d5057" d="M 0 0.03125 L 48.316406 0.03125 L 48.316406 54.761719 L 0 54.761719 Z M 0 0.03125 " fill-opacity="1" fill-rule="nonzero"/></g></g></g></g></g></g><g clip-path="url(#0ba7e9bf65)"><g clip-path="url(#515329af24)"><g transform="matrix(1, 0, 0, 1, 1, 0.000000000000002127)"><g clip-path="url(#8023dc1604)"><g clip-path="url(#1d3cd7403d)"><g clip-path="url(#ba9eeb531b)"><path fill="#4d5057" d="M 0.832031 0.03125 L 45.722656 0.03125 L 45.722656 33.730469 L 0.832031 33.730469 Z M 0.832031 0.03125 " fill-opacity="1" fill-rule="nonzero"/></g></g></g></g></g></g><g clip-path="url(#34b24e712b)"><g clip-path="url(#9af3c907d9)"><g transform="matrix(1, 0, 0, 1, 1, 23)"><g clip-path="url(#1c9bf52067)"><g clip-path="url(#d74bd6d4f0)"><g clip-path="url(#101d7f0c7b)"><path fill="#a59e9e" d="M 0.832031 0.433594 L 45.726562 0.433594 L 45.726562 31.835938 L 0.832031 31.835938 Z M 0.832031 0.433594 " fill-opacity="1" fill-rule="nonzero"/></g></g></g></g></g></g></svg>